inDegrees=no
num_controls=7
num_derivatives=13
num_iterations=265
num_multipliers=7
num_parameters=0
num_slacks=7
num_states=26
objective=0.457777
objective_accelerations=0.000000
objective_balance=0.003212
objective_effort=0.022964
objective_height=0.238197
objective_ligament=0.193404
solver_duration=3360.924819
status=Solve_Succeeded
success=true
DataType=double
version=3
OpenSimVersion=4.5
endheader
time	/jointset/ground_pelvis/pelvis_tilt/value	/jointset/ground_pelvis/pelvis_tx/value	/jointset/ground_pelvis/pelvis_ty/value	/jointset/hip_l/hip_flexion_l/value	/jointset/hip_l/hip_adduction_l/value	/jointset/hip_l/hip_rotation_l/value	/jointset/back/lumbar_extension/value	/jointset/patellofemoral_l/patellar_flexion_l/value	/jointset/knee_l/knee_flexion_l/value	/jointset/knee_l/knee_adduction_l/value	/jointset/knee_l/knee_rotation_l/value	/jointset/ankle_l/ankle_angle_l/value	/jointset/subtalar_l/subtalar_angle_l/value	/jointset/ground_pelvis/pelvis_tilt/speed	/jointset/ground_pelvis/pelvis_tx/speed	/jointset/ground_pelvis/pelvis_ty/speed	/jointset/hip_l/hip_flexion_l/speed	/jointset/hip_l/hip_adduction_l/speed	/jointset/hip_l/hip_rotation_l/speed	/jointset/back/lumbar_extension/speed	/jointset/patellofemoral_l/patellar_flexion_l/speed	/jointset/knee_l/knee_flexion_l/speed	/jointset/knee_l/knee_adduction_l/speed	/jointset/knee_l/knee_rotation_l/speed	/jointset/ankle_l/ankle_angle_l/speed	/jointset/subtalar_l/subtalar_angle_l/speed	/forceset/tau_hip_flexion_l	/forceset/tau_hip_adduction_l	/forceset/tau_hip_rotation_l	/forceset/tau_knee_flexion_l	/forceset/tau_ankle_angle_l	/forceset/tau_subtalar_angle_l	/forceset/tau_lumbar_extension	lambda_cid13_p0	lambda_cid13_p1	lambda_cid13_p2	lambda_cid13_p3	lambda_cid13_p4	lambda_cid13_p5	lambda_cid14_p0	/jointset/ground_pelvis/pelvis_tilt/accel	/jointset/ground_pelvis/pelvis_tx/accel	/jointset/ground_pelvis/pelvis_ty/accel	/jointset/hip_l/hip_flexion_l/accel	/jointset/hip_l/hip_adduction_l/accel	/jointset/hip_l/hip_rotation_l/accel	/jointset/back/lumbar_extension/accel	/jointset/patellofemoral_l/patellar_flexion_l/accel	/jointset/knee_l/knee_flexion_l/accel	/jointset/knee_l/knee_adduction_l/accel	/jointset/knee_l/knee_rotation_l/accel	/jointset/ankle_l/ankle_angle_l/accel	/jointset/subtalar_l/subtalar_angle_l/accel	gamma_cid13_p0	gamma_cid13_p1	gamma_cid13_p2	gamma_cid13_p3	gamma_cid13_p4	gamma_cid13_p5	gamma_cid14_p0
0	-0.03682021988450984	0.05667619688316401	0.9203420756601418	0.3085816938045678	-0.295635128441408	-0.3016031427002349	-0.3879492264334186	0.2499269421184756	0.2499269421184919	-0.1745226351690292	-0.1745263840182525	-0.0008036623358878681	0.0004430807428234555	0	0	0	0	0	0	0	0	0	0	0	0	0	0.2733714552271788	0.06534127470883171	-0.01605140932442341	-0.1277430861279439	0.2189206942180253	0.0526569374958502	-0.5432275344710302	63.62112256303042	-37.01093818487414	8.875748712454561	-140.636964577388	-166.6988265374928	-137.8026995695706	-23.23892422068936	175.9316074561791	-8.808965285173951	17.6815182346717	-76.63014131822879	115.2997573526223	-18.92445976487895	-248.4770003101515	130.9282865157938	130.9282865158526	284.0585122293127	-3.989536887765505	110.4539826721292	157.7278218418351	0.0004165283018236546	0.003314518286589037	-0.003002812359501211	0.0001064706216307192	0.001757502771002625	0.00485033987845317	0.0003882480125748152
0.01	-0.02909721926150596	0.05628435932121491	0.9211201345007196	0.3049809590777594	-0.2905668213644159	-0.3024452747775619	-0.3988889884820828	0.255243868935416	0.2552438689354494	-0.1621647990886408	-0.1745031343270492	0.00383582065930521	0.007328780544415821	1.43989765358618	-0.07377020089972836	0.1417874096909706	-0.6979210914772663	0.9406245752131421	-0.1852186845236514	-2.042234195867577	0.94500548404623	0.9450054840463913	2.28889096227597	0.0065128450858782	0.8407189113548755	1.278299239714318	0.2151905294329475	-0.003611801308947905	-0.02080971838150409	-0.1923520820393671	0.2099030822215364	0.03913152668426817	-0.3541842565011838	49.2650888591664	-27.90651332142243	6.608930145633507	-70.62270819691398	-298.332218715832	-125.9539135729401	-23.23111433435817	112.2802339590086	-5.95015664450252	10.70519912680881	-63.04531626830738	72.74755284411265	-20.28164102202047	-160.2388971445951	58.45204784412272	58.45204784410931	173.9857585328001	2.684102746070061	57.83499538012167	97.88615340856748	0.0002200294541334196	0.001391251675899271	-0.001097837723549751	2.482675861090946e-05	0.0007678851868940545	0.001978773698834992	0.0001742256039490659
0.02	-0.01012296417283631	0.05529699791984206	0.9229716367963059	0.295066568795002	-0.2782315194876266	-0.3055318073453401	-0.425879546073346	0.2664439242918945	0.2664439242918762	-0.1323817793243934	-0.174472274676935	0.01427332277064377	0.0239985084176184	2.2502508931392	-0.1191047678847471	0.2146886910016844	-1.262731111187866	1.453398959964323	-0.4488800980837591	-3.210159108516503	1.176625707895862	1.17662570789586	3.485036736794352	0.001521991743983628	1.159603823227943	1.956805614322111	0.1570096036389647	-0.07256487732658153	-0.02556802743907423	-0.2569610779505239	0.2008854702251749	0.02560611587289141	-0.1651409785312956	35.22346112799748	-18.58292013588265	3.987304160462632	-3.331662568134099	-426.9896112768229	-113.1908719821289	-23.23431737686582	50.0227246495473	-3.121838502232008	3.904292558620338	-50.0079269648956	29.72971926022982	-34.61300557217017	-73.61514366642105	-11.74876552352574	-11.74876552353199	65.50947467779446	-6.290276573320119	6.087182775767592	37.76924882052981	2.353060644318475e-05	-0.0005320149347904941	0.0008071369124017088	-5.681710440890029e-05	-0.0002217323972145161	-0.0008927924807831857	-3.979680467668334e-05
0.03	0.01441585135712461	0.05397338573276666	0.9252435793172211	0.2799512388912561	-0.2628255901612483	-0.3113003869319284	-0.4609942671448027	0.2770326539864215	0.2770326539864445	-0.09574936414323069	-0.1744706188193212	0.02570257366572678	0.04465865492705819	2.615295171808183	-0.1439225810744117	0.2350931296972786	-1.747119975850036	1.560644929971105	-0.6499502189322339	-3.75467686620532	0.9224819434065215	0.9224819434064946	3.684226671256738	0.01257350255212152	1.093718534592078	2.088493091513185	0.1236679826140086	-0.1015840042684698	-0.01263347924719639	-0.2603167454005182	0.1709065228175394	-0.02066689272936151	-0.08130260561489332	20.6150436946892	4.41279674444777	-0.06765967299201199	38.86353791733568	-451.6204910313129	-61.83119774904992	-23.24159759660993	23.4281917027077	-1.919182754109873	0.3691720681080077	-45.6592457642243	-8.937560050837087	-4.775320691075058	-36.15385588435188	-35.0341009543955	-35.03410095439555	-26.45369698594901	7.02546446112418	-17.78964245539881	-12.15397008529311	-4.354139062177389e-05	-0.0001901291790705231	0.0003104806179777805	-1.43791438392281e-05	-4.887198067294145e-05	-0.000276860524554119	-4.713980399360742e-05
0.04	0.04134169211920259	0.05245010940843894	0.92757169673371	0.2603910444314207	-0.248379120319158	-0.3174639287970023	-0.4998109186059896	0.2845225622275229	0.284522562227534	-0.06184053958070572	-0.173913927942942	0.03550032012002137	0.06403118275767058	2.727655939562507	-0.1590375953352111	0.2259236701163906	-2.151704022406083	1.261507063108233	-0.5278725537762351	-3.950545186463715	0.5568614172068973	0.5568614172068649	2.940318613062703	0.1125289954900034	0.8333029350708031	1.699281878556667	0.09032636158912963	-0.1306031312102371	0.0003010689444139554	-0.2636724128505337	0.1409275754099159	-0.0669399013314811	0.002535767301572805	2.081419551524861	27.87654755669525	-3.949378170195628	77.64262301424451	-534.0475972225026	-12.44837390019589	-23.23625031041792	-0.5139775333846608	-1.181278716458972	-2.010487096676063	-34.04696334367146	-51.54704811370135	30.01655162872459	-3.88525618033678	-34.04411786558235	-34.04411786558482	-123.11012385349	11.49051985262879	-32.81887940131434	-66.41048920898852	-0.0001079447928284794	0.0001984607491527417	-0.0002356938399590429	3.06172048456912e-05	0.0001479570544387398	0.0004109786097336544	-5.022137219076192e-05
0.05	0.06859670010866778	0.05079395399424349	0.9297471276183418	0.2373513685547004	-0.2382399432968972	-0.3213754329135559	-0.5395298533760089	0.2887012561427186	0.2887012561427615	-0.0382980854284956	-0.1724458998502942	0.04235460646698153	0.07782954158890019	2.724660147512343	-0.1725582897351234	0.2101372021778373	-2.444982166356457	0.779482320389756	-0.2633890745206168	-3.995001863956932	0.294892722817724	0.2948927228177194	1.801039588193106	0.1724501032993622	0.5489058647141958	1.076779460982976	0.08194839947207681	-0.1124638114315429	0.0008791202008012041	-0.2605923917628603	0.1435623920351185	-0.05523256385061846	0.01725373756326798	0.9870980128601961	23.31929295227076	-3.605616448787873	65.18245765009947	-579.4301089884549	-24.33786489024472	-23.20905823807637	-0.01997065374613556	-1.485698088598627	-1.185340388702093	-25.30408757808996	-44.51174918062857	23.36688887251377	-4.989887995867885	-19.86087250236242	-19.86087250235668	-104.4081611390855	1.900713595472554	-24.57083041051202	-57.71154879342004	-7.443064863073905e-05	0.0001697836306276078	-0.0001816364839666827	1.649687239550988e-05	0.0001288875661077327	0.0003446440308969735	-3.744546494498498e-05
0.06	0.09585623205504423	0.04899294497868031	0.9318001710743368	0.2117117417070064	-0.2325173260677709	-0.3229015736778622	-0.5797461578133728	0.2907427376587009	0.2907427376587094	-0.02516269539203037	-0.1706470992094644	0.04670078019883307	0.08589459009202066	2.728560730945621	-0.1880083156087577	0.201446184389019	-2.671694216601646	0.3781951044829141	-0.05079988332363552	-4.050019119932275	0.1294189373574462	0.1294189373574823	0.8589057899078384	0.1786835051240518	0.3316804120504614	0.5526198129348416	0.07357043735512675	-0.09432449165274145	0.001457171456831362	-0.2575123706751446	0.146197208660368	-0.04352522636961616	0.03197170782499163	1.087802437577566	18.47615648011271	-3.129905871343867	54.07523722922082	-606.9185413151289	-36.54050499759816	-23.16517111094714	0.8652975633039012	-1.567145011203381	-0.5913970667290673	-20.73374460263491	-35.39954275137448	19.63769401699733	-5.997371876761406	-14.74513607980326	-14.7451360798032	-83.68107853662451	0.7529786556950571	-19.38455586273977	-46.74193530387709	-3.679366037386415e-05	0.000123537373292015	-0.0001023062094930937	-1.125834708861912e-07	0.0001007276136317702	0.0002465547694024205	-2.400187452266355e-05
